<svg width="43" height="43" viewBox="0 0 43 43" fill="none" xmlns="http://www.w3.org/2000/svg">
<path d="M26.3425 26.8605L15.0219 17.0196C14.6351 16.6834 14.5931 16.0838 14.9294 15.697C15.2656 15.3103 15.8652 15.2683 16.252 15.6046L27.5726 25.4454C27.9594 25.7817 28.0013 26.3813 27.6651 26.768C27.3289 27.1548 26.7293 27.1968 26.3425 26.8605Z" fill="#292D32"/>
<path d="M15.7615 27.6005C15.3748 27.2643 15.3328 26.6647 15.6691 26.2779L25.5099 14.9573C25.8462 14.5705 26.4458 14.5286 26.8325 14.8648C27.2193 15.201 27.2613 15.8006 26.925 16.1874L17.0841 27.5081C16.7479 27.8948 16.1483 27.9368 15.7615 27.6005Z" fill="#292D32"/>
</svg>
