<svg width="43" height="43" viewBox="0 0 43 43" fill="none" xmlns="http://www.w3.org/2000/svg">
<path d="M26.3425 26.8613L15.0219 17.0204C14.6351 16.6841 14.5931 16.0846 14.9294 15.6978C15.2656 15.311 15.8652 15.2691 16.252 15.6053L27.5726 25.4462C27.9594 25.7824 28.0013 26.382 27.6651 26.7688C27.3289 27.1556 26.7293 27.1975 26.3425 26.8613Z" fill="white"/>
<path d="M15.7615 27.6008C15.3748 27.2646 15.3328 26.665 15.6691 26.2782L25.5099 14.9575C25.8462 14.5708 26.4458 14.5288 26.8325 14.8651C27.2193 15.2013 27.2613 15.8009 26.925 16.1877L17.0841 27.5083C16.7479 27.8951 16.1483 27.937 15.7615 27.6008Z" fill="white"/>
</svg>
