<svg width="32" height="33" viewBox="0 0 32 33" fill="none" xmlns="http://www.w3.org/2000/svg">
<path d="M29.3334 16.3099C29.3334 8.9499 23.36 2.97656 16 2.97656C8.64002 2.97656 2.66669 8.9499 2.66669 16.3099C2.66669 23.6699 8.64002 29.6432 16 29.6432" stroke="#292D32" stroke-width="1.5" stroke-linecap="round" stroke-linejoin="round"/>
<g opacity="0.4">
<path d="M10.6662 4.30957H11.9995C9.3995 12.0962 9.3995 20.5229 11.9995 28.3096H10.6662" stroke="#292D32" stroke-width="1.5" stroke-linecap="round" stroke-linejoin="round"/>
<path d="M20 4.30957C21.2933 8.2029 21.9467 12.2562 21.9467 16.3096" stroke="#292D32" stroke-width="1.5" stroke-linecap="round" stroke-linejoin="round"/>
<path d="M4 21.6429V20.3096C7.89333 21.6029 11.9467 22.2563 16 22.2563" stroke="#292D32" stroke-width="1.5" stroke-linecap="round" stroke-linejoin="round"/>
<path d="M4 12.3094C11.7867 9.70937 20.2133 9.70937 28 12.3094" stroke="#292D32" stroke-width="1.5" stroke-linecap="round" stroke-linejoin="round"/>
</g>
<path d="M24.2667 28.8429C26.6231 28.8429 28.5333 26.9327 28.5333 24.5763C28.5333 22.2198 26.6231 20.3096 24.2667 20.3096C21.9102 20.3096 20 22.2198 20 24.5763C20 26.9327 21.9102 28.8429 24.2667 28.8429Z" stroke="#292D32" stroke-width="1.5" stroke-linecap="round" stroke-linejoin="round"/>
<path d="M29.3333 29.6429L28 28.3096" stroke="#292D32" stroke-width="1.5" stroke-linecap="round" stroke-linejoin="round"/>
</svg>
