<svg width="24" height="24" viewBox="0 0 24 24" fill="none" xmlns="http://www.w3.org/2000/svg">
<path d="M10.05 2.53028L4.03 6.46028C2.1 7.72028 2.1 10.5403 4.03 11.8003L10.05 15.7303C11.13 16.4403 12.91 16.4403 13.99 15.7303L19.98 11.8003C21.9 10.5403 21.9 7.73028 19.98 6.47028L13.99 2.54028C12.91 1.82028 11.13 1.82028 10.05 2.53028Z" stroke="white" stroke-width="1.5" stroke-linecap="round" stroke-linejoin="round"/>
<path d="M5.63 13.0801L5.62 17.7701C5.62 19.0401 6.6 20.4001 7.8 20.8001L10.99 21.8601C11.54 22.0401 12.45 22.0401 13.01 21.8601L16.2 20.8001C17.4 20.4001 18.38 19.0401 18.38 17.7701V13.1301" stroke="white" stroke-width="1.5" stroke-linecap="round" stroke-linejoin="round"/>
<path d="M21.4 15V9" stroke="white" stroke-width="1.5" stroke-linecap="round" stroke-linejoin="round"/>
</svg>
