<svg width="20" height="20" viewBox="0 0 20 20" fill="none" xmlns="http://www.w3.org/2000/svg">
<g id="upload-cloud" clip-path="url(#clip0_159_212)">
<path id="Icon" d="M12.744 13.9225C13.0695 14.2479 13.5971 14.2479 13.9226 13.9225C14.248 13.5971 14.248 13.0694 13.9226 12.744L12.744 13.9225ZM9.99997 9.99991L10.5892 9.41065C10.2638 9.08521 9.73615 9.08521 9.41071 9.41065L9.99997 9.99991ZM6.07738 12.744C5.75194 13.0694 5.75194 13.5971 6.07738 13.9225C6.40282 14.2479 6.93045 14.2479 7.25589 13.9225L6.07738 12.744ZM9.16663 17.4999C9.16663 17.9601 9.53973 18.3332 9.99997 18.3332C10.4602 18.3332 10.8333 17.9601 10.8333 17.4999H9.16663ZM16.5927 14.5932C16.1887 14.8135 16.0397 15.3197 16.26 15.7238C16.4803 16.1279 16.9864 16.2769 17.3905 16.0566L16.5927 14.5932ZM15 7.49991L15.0005 6.66657H15V7.49991ZM13.95 7.49991L13.1432 7.70849C13.2383 8.0763 13.5701 8.33324 13.95 8.33324V7.49991ZM1.87552 14.1351C2.18029 14.4799 2.70692 14.5124 3.05179 14.2077C3.39667 13.9029 3.42918 13.3763 3.12441 13.0314L1.87552 14.1351ZM13.9226 12.744L10.5892 9.41065L9.41071 10.5892L12.744 13.9225L13.9226 12.744ZM9.41071 9.41065L6.07738 12.744L7.25589 13.9225L10.5892 10.5892L9.41071 9.41065ZM9.16663 9.99991V17.4999H10.8333V9.99991H9.16663ZM17.3905 16.0566C18.3659 15.5248 19.1363 14.6835 19.5804 13.6652L18.0527 12.999C17.7566 13.6778 17.243 14.2388 16.5927 14.5932L17.3905 16.0566ZM19.5804 13.6652C20.0244 12.6469 20.1167 11.5098 19.8427 10.4333L18.2276 10.8444C18.4102 11.5621 18.3487 12.3201 18.0527 12.999L19.5804 13.6652ZM19.8427 10.4333C19.5687 9.35672 18.944 8.40208 18.0672 7.72002L17.0439 9.03554C17.6284 9.49025 18.0449 10.1267 18.2276 10.8444L19.8427 10.4333ZM18.0672 7.72002C17.1904 7.03795 16.1114 6.66731 15.0005 6.66657L14.9994 8.33324C15.74 8.33373 16.4593 8.58083 17.0439 9.03554L18.0672 7.72002ZM15 6.66657H13.95V8.33324H15V6.66657ZM14.7568 7.29132C14.473 6.19373 13.9441 5.17475 13.2098 4.311L11.94 5.39047C12.5111 6.06228 12.9225 6.85482 13.1432 7.70849L14.7568 7.29132ZM13.2098 4.311C12.4756 3.44724 11.5551 2.76118 10.5175 2.30439L9.84594 3.82977C10.6529 4.18505 11.3689 4.71866 11.94 5.39047L13.2098 4.311ZM10.5175 2.30439C9.47992 1.8476 8.35229 1.63196 7.21938 1.67371L7.28075 3.33924C8.1619 3.30678 9.03894 3.47449 9.84594 3.82977L10.5175 2.30439ZM7.21938 1.67371C6.08648 1.71545 4.97777 2.01347 3.97663 2.54538L4.7586 4.01721C5.53727 3.60351 6.3996 3.37171 7.28075 3.33924L7.21938 1.67371ZM3.97663 2.54538C2.97548 3.07728 2.10794 3.82922 1.43923 4.74467L2.78507 5.72777C3.30518 5.01576 3.97993 4.43091 4.7586 4.01721L3.97663 2.54538ZM1.43923 4.74467C0.770521 5.66012 0.318044 6.71526 0.115816 7.83075L1.75575 8.12805C1.91304 7.26045 2.26497 6.43979 2.78507 5.72777L1.43923 4.74467ZM0.115816 7.83075C-0.0864124 8.94624 -0.0331292 10.0931 0.27166 11.185L1.87696 10.7369C1.6399 9.88763 1.59846 8.99566 1.75575 8.12805L0.115816 7.83075ZM0.27166 11.185C0.576449 12.2769 1.12481 13.2856 1.87552 14.1351L3.12441 13.0314C2.54053 12.3707 2.11402 11.5862 1.87696 10.7369L0.27166 11.185Z" fill="#475467"/>
</g>
<defs>
<clipPath id="clip0_159_212">
<rect width="20" height="20" fill="white"/>
</clipPath>
</defs>
</svg>
